<svg xmlns="http://www.w3.org/2000/svg" viewBox="0 0 1280 720" width="1280" height="720">
  <defs>
    <radialGradient id="bgGlow" cx="50%" cy="40%" r="50%">
      <stop offset="0%" stop-color="#c9866b" stop-opacity="0.05" />
      <stop offset="100%" stop-color="#FAFAF8" stop-opacity="0" />
    </radialGradient>
  </defs>
  <g id="bg-layer">
    <rect x="0" y="0" width="1280" height="720" fill="#FAFAF8" />
    <rect x="0" y="0" width="1280" height="720" fill="url(#bgGlow)" />
  </g>
  <g id="header">
    <text x="80" y="55" font-family="'Noto Sans SC', 'PingFang SC', 'Microsoft YaHei', sans-serif" font-size="15" fill="#2D2A26" fill-opacity="0.28">AI</text>
    <line x1="80" y1="68" x2="120" y2="68" stroke="#c9866b" stroke-opacity="0.35" stroke-width="1.5" />
    <text x="640" y="140" text-anchor="middle" font-family="'Playfair Display', 'Noto Serif SC', Georgia, serif" font-size="40" font-weight="700" fill="#2D2A26">AI 能力总览</text>
    <text x="640" y="180" text-anchor="middle" font-family="'Noto Sans SC', 'PingFang SC', 'Microsoft YaHei', sans-serif" font-size="17" fill="#2D2A26" fill-opacity="0.35">DeepSeek V4 Flash 驱动，让每个书签从「一个链接」变成「一份结构化知识」</text>
  </g>
  <g id="card-tag">
    <path fill="#FFFFFF" stroke="#2D2A26" stroke-opacity="0.08" stroke-width="1" d="M96,240 H424 A16,16 0 0 1 440,256 V604 A16,16 0 0 1 424,620 H96 A16,16 0 0 1 80,604 V256 A16,16 0 0 1 96,240 Z" />
    <circle cx="260" cy="310" r="40" fill="#c9866b" fill-opacity="0.06" />
    
  <g transform="translate(240.0, 290.0) scale(1.6666666666666667)" fill="none" stroke="#c9866b" stroke-width="2">
    <path d="M6.5 7.5a1 1 0 1 0 2 0a1 1 0 1 0 -2 0" />
    <path d="M3 6v5.172a2 2 0 0 0 .586 1.414l7.71 7.71a2.41 2.41 0 0 0 3.408 0l5.592 -5.592a2.41 2.41 0 0 0 0 -3.408l-7.71 -7.71a2 2 0 0 0 -1.414 -.586h-5.172a3 3 0 0 0 -3 3" />
  </g>
    <text x="260" y="390" text-anchor="middle" font-family="'Noto Sans SC', 'PingFang SC', 'Microsoft YaHei', sans-serif" font-size="24" font-weight="600" fill="#2D2A26">自动标签</text>
    <text x="260" y="430" text-anchor="middle" font-family="'Noto Sans SC', 'PingFang SC', 'Microsoft YaHei', sans-serif" font-size="20" font-weight="400" fill="#2D2A26" fill-opacity="0.40">AI 生成 2-5 个</text>
    <text x="260" y="458" text-anchor="middle" font-family="'Noto Sans SC', 'PingFang SC', 'Microsoft YaHei', sans-serif" font-size="20" font-weight="400" fill="#2D2A26" fill-opacity="0.40">精准中文标签</text>
    <line x1="180" y1="490" x2="340" y2="490" stroke="#2D2A26" stroke-opacity="0.08" stroke-width="1" />
    <text x="260" y="525" text-anchor="middle" font-family="'Noto Sans SC', 'PingFang SC', 'Microsoft YaHei', sans-serif" font-size="14" fill="#2D2A26" fill-opacity="0.28">彩色标签徽章展示</text>
    <text x="260" y="550" text-anchor="middle" font-family="'Noto Sans SC', 'PingFang SC', 'Microsoft YaHei', sans-serif" font-size="14" fill="#2D2A26" fill-opacity="0.28">标签云词频可视化</text>
  </g>
  <g id="card-category">
    <path fill="#FFFFFF" stroke="#2D2A26" stroke-opacity="0.08" stroke-width="1" d="M476,240 H804 A16,16 0 0 1 820,256 V604 A16,16 0 0 1 804,620 H476 A16,16 0 0 1 460,604 V256 A16,16 0 0 1 476,240 Z" />
    <circle cx="640" cy="310" r="40" fill="#c9866b" fill-opacity="0.06" />
    
  <g transform="translate(620.0, 290.0) scale(1.6666666666666667)" fill="none" stroke="#c9866b" stroke-width="2">
    <path d="M5 4h4l3 3h7a2 2 0 0 1 2 2v8a2 2 0 0 1 -2 2h-14a2 2 0 0 1 -2 -2v-11a2 2 0 0 1 2 -2" />
  </g>
    <text x="640" y="390" text-anchor="middle" font-family="'Noto Sans SC', 'PingFang SC', 'Microsoft YaHei', sans-serif" font-size="24" font-weight="600" fill="#2D2A26">智能分类</text>
    <text x="640" y="430" text-anchor="middle" font-family="'Noto Sans SC', 'PingFang SC', 'Microsoft YaHei', sans-serif" font-size="20" font-weight="400" fill="#2D2A26" fill-opacity="0.40">自动建议</text>
    <text x="640" y="458" text-anchor="middle" font-family="'Noto Sans SC', 'PingFang SC', 'Microsoft YaHei', sans-serif" font-size="20" font-weight="400" fill="#2D2A26" fill-opacity="0.40">层级分类路径</text>
    <line x1="560" y1="490" x2="720" y2="490" stroke="#2D2A26" stroke-opacity="0.08" stroke-width="1" />
    <text x="640" y="525" text-anchor="middle" font-family="'Noto Sans SC', 'PingFang SC', 'Microsoft YaHei', sans-serif" font-size="14" fill="#2D2A26" fill-opacity="0.28">如：技术学习 &gt; 前端 &gt; React</text>
    <text x="640" y="550" text-anchor="middle" font-family="'Noto Sans SC', 'PingFang SC', 'Microsoft YaHei', sans-serif" font-size="14" fill="#2D2A26" fill-opacity="0.28">用户可修改 · 分类树侧边栏</text>
  </g>
  <g id="card-summary">
    <path fill="#FFFFFF" stroke="#2D2A26" stroke-opacity="0.08" stroke-width="1" d="M856,240 H1184 A16,16 0 0 1 1200,256 V604 A16,16 0 0 1 1184,620 H856 A16,16 0 0 1 840,604 V256 A16,16 0 0 1 856,240 Z" />
    <circle cx="1020" cy="310" r="40" fill="#c9866b" fill-opacity="0.06" />
    
  <g transform="translate(1000.0, 290.0) scale(1.6666666666666667)" fill="none" stroke="#c9866b" stroke-width="2">
    <path d="M14 3v4a1 1 0 0 0 1 1h4" />
    <path d="M17 21h-10a2 2 0 0 1 -2 -2v-14a2 2 0 0 1 2 -2h7l5 5v11a2 2 0 0 1 -2 2" />
  </g>
    <text x="1020" y="390" text-anchor="middle" font-family="'Noto Sans SC', 'PingFang SC', 'Microsoft YaHei', sans-serif" font-size="24" font-weight="600" fill="#2D2A26">AI 摘要</text>
    <text x="1020" y="430" text-anchor="middle" font-family="'Noto Sans SC', 'PingFang SC', 'Microsoft YaHei', sans-serif" font-size="20" font-weight="400" fill="#2D2A26" fill-opacity="0.40">2-3 句中文摘要</text>
    <text x="1020" y="458" text-anchor="middle" font-family="'Noto Sans SC', 'PingFang SC', 'Microsoft YaHei', sans-serif" font-size="20" font-weight="400" fill="#2D2A26" fill-opacity="0.40">1-3 秒自动生成</text>
    <line x1="940" y1="490" x2="1100" y2="490" stroke="#2D2A26" stroke-opacity="0.08" stroke-width="1" />
    <text x="1020" y="525" text-anchor="middle" font-family="'Noto Sans SC', 'PingFang SC', 'Microsoft YaHei', sans-serif" font-size="14" fill="#2D2A26" fill-opacity="0.28">展开/收起状态</text>
    <text x="1020" y="550" text-anchor="middle" font-family="'Noto Sans SC', 'PingFang SC', 'Microsoft YaHei', sans-serif" font-size="14" fill="#2D2A26" fill-opacity="0.28">快速回顾书签内容</text>
  </g>
  <g id="footer">
    <text x="1200" y="690" text-anchor="end" font-family="'Noto Sans SC', 'PingFang SC', 'Microsoft YaHei', sans-serif" font-size="13" fill="#2D2A26" fill-opacity="0.28">09 / 25</text>
    <text x="80" y="690" font-family="'Noto Sans SC', 'PingFang SC', 'Microsoft YaHei', sans-serif" font-size="13" fill="#2D2A26" fill-opacity="0.18">MarkBox · AI 能力总览</text>
  </g>
</svg>