<svg xmlns="http://www.w3.org/2000/svg" viewBox="0 0 1280 720" width="1280" height="720">
  <defs>
    <radialGradient id="bgGlow" cx="30%" cy="50%" r="40%">
      <stop offset="0%" stop-color="#c9866b" stop-opacity="0.04" />
      <stop offset="100%" stop-color="#FAFAF8" stop-opacity="0" />
    </radialGradient>
  </defs>
  <g id="bg-layer">
    <rect x="0" y="0" width="1280" height="720" fill="#FAFAF8" />
    <rect x="0" y="0" width="1280" height="720" fill="url(#bgGlow)" />
  </g>
  <g id="header">
    <text x="80" y="55" font-family="'Noto Sans SC', 'PingFang SC', 'Microsoft YaHei', sans-serif" font-size="15" fill="#2D2A26" fill-opacity="0.28">AI</text>
    <line x1="80" y1="68" x2="120" y2="68" stroke="#c9866b" stroke-opacity="0.35" stroke-width="1.5" />
    <text x="80" y="120" font-family="'Playfair Display', 'Noto Serif SC', Georgia, serif" font-size="36" font-weight="700" fill="#2D2A26">智能分类</text>
    <text x="80" y="153" font-family="'Noto Sans SC', 'PingFang SC', 'Microsoft YaHei', sans-serif" font-size="15" fill="#2D2A26" fill-opacity="0.40">AI 自动建议层级路径，用户可确认或修改</text>
  </g>
  <g id="left-content">
    <g id="feature-1">
      
  <g transform="translate(80.0, 210.0)" fill="none" stroke="#c9866b" stroke-width="2">
    <path d="M15.5 13a3.5 3.5 0 0 0 -3.5 3.5v1a3.5 3.5 0 0 0 7 0v-1.8" />
    <path d="M8.5 13a3.5 3.5 0 0 1 3.5 3.5v1a3.5 3.5 0 0 1 -7 0v-1.8" />
    <path d="M17.5 16a3.5 3.5 0 0 0 0 -7h-.5" />
    <path d="M19 9.3v-2.8a3.5 3.5 0 0 0 -7 0" />
    <path d="M6.5 16a3.5 3.5 0 0 1 0 -7h.5" />
    <path d="M5 9.3v-2.8a3.5 3.5 0 0 1 7 0v10" />
  </g>
      <text x="120" y="228" font-family="'Noto Sans SC', 'PingFang SC', 'Microsoft YaHei', sans-serif" font-size="18" font-weight="600" fill="#2D2A26">AI 路径建议</text>
      <text x="120" y="255" font-family="'Noto Sans SC', 'PingFang SC', 'Microsoft YaHei', sans-serif" font-size="14" fill="#2D2A26" fill-opacity="0.40">基于内容语义自动推断分类，如：技术学习 &gt; 前端 &gt; React</text>
    </g>
    <g id="feature-2">
      
  <g transform="translate(80.0, 320.0)" fill="none" stroke="#c9866b" stroke-width="2">
    <path d="M5 4h4l3 3h7a2 2 0 0 1 2 2v8a2 2 0 0 1 -2 2h-14a2 2 0 0 1 -2 -2v-11a2 2 0 0 1 2 -2" />
  </g>
      <text x="120" y="338" font-family="'Noto Sans SC', 'PingFang SC', 'Microsoft YaHei', sans-serif" font-size="18" font-weight="600" fill="#2D2A26">层级分类树</text>
      <text x="120" y="365" font-family="'Noto Sans SC', 'PingFang SC', 'Microsoft YaHei', sans-serif" font-size="14" fill="#2D2A26" fill-opacity="0.40">自引用父子关系，支持无限嵌套的子分类结构</text>
    </g>
    <g id="feature-3">
      
  <g transform="translate(80.0, 430.0)" fill="none" stroke="#c9866b" stroke-width="2">
    <path d="M10.325 4.317c.426 -1.756 2.924 -1.756 3.35 0a1.724 1.724 0 0 0 2.573 1.066c1.543 -.94 3.31 .826 2.37 2.37a1.724 1.724 0 0 0 1.065 2.572c1.756 .426 1.756 2.924 0 3.35a1.724 1.724 0 0 0 -1.066 2.573c.94 1.543 -.826 3.31 -2.37 2.37a1.724 1.724 0 0 0 -2.572 1.065c-.426 1.756 -2.924 1.756 -3.35 0a1.724 1.724 0 0 0 -2.573 -1.066c-1.543 .94 -3.31 -.826 -2.37 -2.37a1.724 1.724 0 0 0 -1.065 -2.572c-1.756 -.426 -1.756 -2.924 0 -3.35a1.724 1.724 0 0 0 1.066 -2.573c-.94 -1.543 .826 -3.31 2.37 -2.37c1 .608 2.296 .07 2.572 -1.065" />
    <path d="M9 12a3 3 0 1 0 6 0a3 3 0 0 0 -6 0" />
  </g>
      <text x="120" y="448" font-family="'Noto Sans SC', 'PingFang SC', 'Microsoft YaHei', sans-serif" font-size="18" font-weight="600" fill="#2D2A26">分类管理</text>
      <text x="120" y="475" font-family="'Noto Sans SC', 'PingFang SC', 'Microsoft YaHei', sans-serif" font-size="14" fill="#2D2A26" fill-opacity="0.40">右键菜单重命名/删除分类，dnd-kit 可拖拽重排分类顺序</text>
    </g>
    <g id="feature-4">
      
  <g transform="translate(80.0, 540.0)" fill="none" stroke="#c9866b" stroke-width="2">
    <path d="M3 10a7 7 0 1 0 14 0a7 7 0 1 0 -14 0" />
    <path d="M21 21l-6 -6" />
  </g>
      <text x="120" y="558" font-family="'Noto Sans SC', 'PingFang SC', 'Microsoft YaHei', sans-serif" font-size="18" font-weight="600" fill="#2D2A26">筛选过滤</text>
      <text x="120" y="585" font-family="'Noto Sans SC', 'PingFang SC', 'Microsoft YaHei', sans-serif" font-size="14" fill="#2D2A26" fill-opacity="0.40">侧边栏点击分类即可过滤，快速找到目标书签</text>
    </g>
  </g>
  <g id="placeholder-category">
    <path fill="#c9866b" fill-opacity="0.03" d="M652,190 H1188 A12,12 0 0 1 1200,202 V618 A12,12 0 0 1 1188,630 H652 A12,12 0 0 1 640,618 V202 A12,12 0 0 1 652,190 Z" />
    <path fill="none" stroke="#c9866b" stroke-opacity="0.30" stroke-width="1.5" stroke-dasharray="8,4" d="M652,190 H1188 A12,12 0 0 1 1200,202 V618 A12,12 0 0 1 1188,630 H652 A12,12 0 0 1 640,618 V202 A12,12 0 0 1 652,190 Z" />
    
  <g transform="translate(880.0, 375.0) scale(1.6666666666666667)" fill="none" stroke="#c9866b" stroke-width="2">
    <path d="M5 4h4l3 3h7a2 2 0 0 1 2 2v8a2 2 0 0 1 -2 2h-14a2 2 0 0 1 -2 -2v-11a2 2 0 0 1 2 -2" />
  </g>
    <text x="920" y="400" font-family="'Noto Sans SC', 'PingFang SC', 'Microsoft YaHei', sans-serif" font-size="16" fill="#2D2A26" fill-opacity="0.33">detail_category_suggest.png</text>
    <text x="920" y="423" font-family="'Noto Sans SC', 'PingFang SC', 'Microsoft YaHei', sans-serif" font-size="13" fill="#2D2A26" fill-opacity="0.18">AI 分类路径建议下拉</text>
  </g>
  <g id="footer">
    <text x="1200" y="690" text-anchor="end" font-family="'Noto Sans SC', 'PingFang SC', 'Microsoft YaHei', sans-serif" font-size="13" fill="#2D2A26" fill-opacity="0.28">11 / 25</text>
    <text x="80" y="690" font-family="'Noto Sans SC', 'PingFang SC', 'Microsoft YaHei', sans-serif" font-size="13" fill="#2D2A26" fill-opacity="0.18">MarkBox · 智能分类</text>
  </g>
</svg>