<svg xmlns="http://www.w3.org/2000/svg" viewBox="0 0 1280 720" width="1280" height="720">
  <defs>
    <radialGradient id="bgGlow" cx="30%" cy="50%" r="40%">
      <stop offset="0%" stop-color="#c9866b" stop-opacity="0.04" />
      <stop offset="100%" stop-color="#FAFAF8" stop-opacity="0" />
    </radialGradient>
  </defs>
  <g id="bg-layer">
    <rect x="0" y="0" width="1280" height="720" fill="#FAFAF8" />
    <rect x="0" y="0" width="1280" height="720" fill="url(#bgGlow)" />
  </g>
  <g id="header">
    <text x="80" y="55" font-family="'Noto Sans SC', 'PingFang SC', 'Microsoft YaHei', sans-serif" font-size="15" fill="#2D2A26" fill-opacity="0.28">AI</text>
    <line x1="80" y1="68" x2="120" y2="68" stroke="#c9866b" stroke-opacity="0.35" stroke-width="1.5" />
    <text x="80" y="120" font-family="'Playfair Display', 'Noto Serif SC', Georgia, serif" font-size="36" font-weight="700" fill="#2D2A26">AI 摘要</text>
    <text x="80" y="153" font-family="'Noto Sans SC', 'PingFang SC', 'Microsoft YaHei', sans-serif" font-size="15" fill="#2D2A26" fill-opacity="0.40">2-3 句中文摘要自动生成，快速回顾书签内容</text>
  </g>
  <g id="left-content">
    <g id="feature-1">
      
  <g transform="translate(80.0, 210.0)" fill="none" stroke="#c9866b" stroke-width="2">
    <path d="M14 3v4a1 1 0 0 0 1 1h4" />
    <path d="M17 21h-10a2 2 0 0 1 -2 -2v-14a2 2 0 0 1 2 -2h7l5 5v11a2 2 0 0 1 -2 2" />
  </g>
      <text x="120" y="228" font-family="'Noto Sans SC', 'PingFang SC', 'Microsoft YaHei', sans-serif" font-size="18" font-weight="600" fill="#2D2A26">自动摘要生成</text>
      <text x="120" y="255" font-family="'Noto Sans SC', 'PingFang SC', 'Microsoft YaHei', sans-serif" font-size="14" fill="#2D2A26" fill-opacity="0.40">DeepSeek V4 Flash 读取元数据，1-3 秒生成 2-3 句精炼中文摘要</text>
    </g>
    <g id="feature-2">
      
  <g transform="translate(80.0, 320.0)" fill="none" stroke="#c9866b" stroke-width="2">
    <path d="M10 12a2 2 0 1 0 4 0a2 2 0 0 0 -4 0" />
    <path d="M21 12c-2.4 4 -5.4 6 -9 6c-3.6 0 -6.6 -2 -9 -6c2.4 -4 5.4 -6 9 -6c3.6 0 6.6 2 9 6" />
  </g>
      <text x="120" y="338" font-family="'Noto Sans SC', 'PingFang SC', 'Microsoft YaHei', sans-serif" font-size="18" font-weight="600" fill="#2D2A26">展开/收起</text>
      <text x="120" y="365" font-family="'Noto Sans SC', 'PingFang SC', 'Microsoft YaHei', sans-serif" font-size="14" fill="#2D2A26" fill-opacity="0.40">卡片内嵌摘要，点击可展开完整文本，一目了然无需进入详情</text>
    </g>
    <g id="feature-3">
      
  <g transform="translate(80.0, 430.0)" fill="none" stroke="#c9866b" stroke-width="2">
    <path d="M3 10a7 7 0 1 0 14 0a7 7 0 1 0 -14 0" />
    <path d="M21 21l-6 -6" />
  </g>
      <text x="120" y="448" font-family="'Noto Sans SC', 'PingFang SC', 'Microsoft YaHei', sans-serif" font-size="18" font-weight="600" fill="#2D2A26">语义搜索增强</text>
      <text x="120" y="475" font-family="'Noto Sans SC', 'PingFang SC', 'Microsoft YaHei', sans-serif" font-size="14" fill="#2D2A26" fill-opacity="0.40">摘要文本纳入全文搜索索引，语义搜索可匹配摘要中的自然语言</text>
    </g>
    <g id="feature-4">
      
  <g transform="translate(80.0, 540.0)" fill="none" stroke="#c9866b" stroke-width="2">
    <path d="M16 18a2 2 0 0 1 2 2a2 2 0 0 1 2 -2a2 2 0 0 1 -2 -2a2 2 0 0 1 -2 2m0 -12a2 2 0 0 1 2 2a2 2 0 0 1 2 -2a2 2 0 0 1 -2 -2a2 2 0 0 1 -2 2m-7 12a6 6 0 0 1 6 -6a6 6 0 0 1 -6 -6a6 6 0 0 1 -6 6a6 6 0 0 1 6 6" />
  </g>
      <text x="120" y="558" font-family="'Noto Sans SC', 'PingFang SC', 'Microsoft YaHei', sans-serif" font-size="18" font-weight="600" fill="#2D2A26">Embedding 向量</text>
      <text x="120" y="585" font-family="'Noto Sans SC', 'PingFang SC', 'Microsoft YaHei', sans-serif" font-size="14" fill="#2D2A26" fill-opacity="0.40">书签可生成 Embedding 向量，与摘要结合实现语义级精排推荐</text>
    </g>
  </g>
  <g id="placeholder-summary">
    <path fill="#c9866b" fill-opacity="0.03" d="M652,190 H1188 A12,12 0 0 1 1200,202 V618 A12,12 0 0 1 1188,630 H652 A12,12 0 0 1 640,618 V202 A12,12 0 0 1 652,190 Z" />
    <path fill="none" stroke="#c9866b" stroke-opacity="0.30" stroke-width="1.5" stroke-dasharray="8,4" d="M652,190 H1188 A12,12 0 0 1 1200,202 V618 A12,12 0 0 1 1188,630 H652 A12,12 0 0 1 640,618 V202 A12,12 0 0 1 652,190 Z" />
    
  <g transform="translate(880.0, 375.0) scale(1.6666666666666667)" fill="none" stroke="#c9866b" stroke-width="2">
    <path d="M14 3v4a1 1 0 0 0 1 1h4" />
    <path d="M17 21h-10a2 2 0 0 1 -2 -2v-14a2 2 0 0 1 2 -2h7l5 5v11a2 2 0 0 1 -2 2" />
  </g>
    <text x="920" y="400" font-family="'Noto Sans SC', 'PingFang SC', 'Microsoft YaHei', sans-serif" font-size="16" fill="#2D2A26" fill-opacity="0.33">detail_summary.png</text>
    <text x="920" y="423" font-family="'Noto Sans SC', 'PingFang SC', 'Microsoft YaHei', sans-serif" font-size="13" fill="#2D2A26" fill-opacity="0.18">AI 摘要文本展开状态</text>
  </g>
  <g id="footer">
    <text x="1200" y="690" text-anchor="end" font-family="'Noto Sans SC', 'PingFang SC', 'Microsoft YaHei', sans-serif" font-size="13" fill="#2D2A26" fill-opacity="0.28">12 / 25</text>
    <text x="80" y="690" font-family="'Noto Sans SC', 'PingFang SC', 'Microsoft YaHei', sans-serif" font-size="13" fill="#2D2A26" fill-opacity="0.18">MarkBox · AI 摘要</text>
  </g>
</svg>