<svg xmlns="http://www.w3.org/2000/svg" viewBox="0 0 1280 720" width="1280" height="720">
  <defs>
    <radialGradient id="bgGlow" cx="50%" cy="50%" r="45%">
      <stop offset="0%" stop-color="#c9866b" stop-opacity="0.04" />
      <stop offset="100%" stop-color="#FAFAF8" stop-opacity="0" />
    </radialGradient>
  </defs>
  <g id="bg-layer">
    <rect x="0" y="0" width="1280" height="720" fill="#FAFAF8" />
    <rect x="0" y="0" width="1280" height="720" fill="url(#bgGlow)" />
  </g>
  <g id="header">
    <text x="80" y="50" font-family="'Noto Sans SC', 'PingFang SC', 'Microsoft YaHei', sans-serif" font-size="15" fill="#2D2A26" fill-opacity="0.28">视图</text>
    <line x1="80" y1="63" x2="130" y2="63" stroke="#c9866b" stroke-opacity="0.35" stroke-width="1.5" />
    <text x="80" y="110" font-family="'Playfair Display', 'Noto Serif SC', Georgia, serif" font-size="36" font-weight="700" fill="#2D2A26">十大功能视图</text>
    <text x="640" y="110" text-anchor="middle" font-family="'Noto Sans SC', 'PingFang SC', 'Microsoft YaHei', sans-serif" font-size="15" fill="#2D2A26" fill-opacity="0.40">同一个书签库，十种视角 — 每种视角解决一种「我想看什么」的需求</text>
  </g>
  <g id="view-grid"><path fill="#FFFFFF" stroke="#2D2A26" stroke-opacity="0.08" stroke-width="1" d="M90,145 H420 A10,10 0 0 1 430,155 V235 A10,10 0 0 1 420,245 H90 A10,10 0 0 1 80,235 V155 A10,10 0 0 1 90,145 Z" />
    
  <g transform="translate(105.0, 170.0) scale(0.9166666666666666)" fill="none" stroke="#c9866b" stroke-width="2">
    <path d="M15 10v11l-5 -3l-5 3v-11a3 3 0 0 1 3 -3h4a3 3 0 0 1 3 3" />
    <path d="M11 3h5a3 3 0 0 1 3 3v11" />
  </g>
    <text x="140" y="185" font-family="'Noto Sans SC', 'PingFang SC', 'Microsoft YaHei', sans-serif" font-size="17" font-weight="600" fill="#2D2A26">Grid · 网格视图</text>
    <text x="105" y="215" font-family="'Noto Sans SC', 'PingFang SC', 'Microsoft YaHei', sans-serif" font-size="13" fill="#2D2A26" fill-opacity="0.28">传统卡片网格/列表模式，快速浏览所有书签</text>
  </g>
  <g id="view-gallery"><path fill="#FFFFFF" stroke="#2D2A26" stroke-opacity="0.08" stroke-width="1" d="M460,145 H790 A10,10 0 0 1 800,155 V235 A10,10 0 0 1 790,245 H460 A10,10 0 0 1 450,235 V155 A10,10 0 0 1 460,145 Z" />
    
  <g transform="translate(475.0, 170.0) scale(0.9166666666666666)" fill="none" stroke="#c9866b" stroke-width="2">
    <path d="M10 12a2 2 0 1 0 4 0a2 2 0 0 0 -4 0" />
    <path d="M21 12c-2.4 4 -5.4 6 -9 6c-3.6 0 -6.6 -2 -9 -6c2.4 -4 5.4 -6 9 -6c3.6 0 6.6 2 9 6" />
  </g>
    <text x="510" y="185" font-family="'Noto Sans SC', 'PingFang SC', 'Microsoft YaHei', sans-serif" font-size="17" font-weight="600" fill="#2D2A26">Gallery · 画廊视图</text>
    <text x="475" y="215" font-family="'Noto Sans SC', 'PingFang SC', 'Microsoft YaHei', sans-serif" font-size="13" fill="#2D2A26" fill-opacity="0.28">CSS Columns 瀑布流，适合图片型书签浏览</text>
  </g>
  <g id="view-discover"><path fill="#FFFFFF" stroke="#2D2A26" stroke-opacity="0.08" stroke-width="1" d="M830,145 H1190 A10,10 0 0 1 1200,155 V235 A10,10 0 0 1 1190,245 H830 A10,10 0 0 1 820,235 V155 A10,10 0 0 1 830,145 Z" />
    
  <g transform="translate(845.0, 170.0) scale(0.9166666666666666)" fill="none" stroke="#c9866b" stroke-width="2">
    <path d="M7 9a4 4 0 1 0 8 0a4 4 0 0 0 -8 0" />
    <path d="M5.75 15a8.015 8.015 0 1 0 9.25 -13" />
    <path d="M11 17v4" />
    <path d="M7 21h8" />
  </g>
    <text x="880" y="185" font-family="'Noto Sans SC', 'PingFang SC', 'Microsoft YaHei', sans-serif" font-size="17" font-weight="600" fill="#2D2A26">Discover · 发现页</text>
    <text x="845" y="215" font-family="'Noto Sans SC', 'PingFang SC', 'Microsoft YaHei', sans-serif" font-size="13" fill="#2D2A26" fill-opacity="0.28">跨领域/最新收录/每日精选三模式</text>
  </g>
  <g id="view-dashboard"><path fill="#FFFFFF" stroke="#2D2A26" stroke-opacity="0.08" stroke-width="1" d="M90,265 H420 A10,10 0 0 1 430,275 V355 A10,10 0 0 1 420,365 H90 A10,10 0 0 1 80,355 V275 A10,10 0 0 1 90,265 Z" />
    
  <g transform="translate(105.0, 290.0) scale(0.9166666666666666)" fill="none" stroke="#c9866b" stroke-width="2">
    <path d="M5 4h4a1 1 0 0 1 1 1v6a1 1 0 0 1 -1 1h-4a1 1 0 0 1 -1 -1v-6a1 1 0 0 1 1 -1" />
    <path d="M5 16h4a1 1 0 0 1 1 1v2a1 1 0 0 1 -1 1h-4a1 1 0 0 1 -1 -1v-2a1 1 0 0 1 1 -1" />
    <path d="M15 12h4a1 1 0 0 1 1 1v6a1 1 0 0 1 -1 1h-4a1 1 0 0 1 -1 -1v-6a1 1 0 0 1 1 -1" />
    <path d="M15 4h4a1 1 0 0 1 1 1v2a1 1 0 0 1 -1 1h-4a1 1 0 0 1 -1 -1v-2a1 1 0 0 1 1 -1" />
  </g>
    <text x="140" y="305" font-family="'Noto Sans SC', 'PingFang SC', 'Microsoft YaHei', sans-serif" font-size="17" font-weight="600" fill="#2D2A26">Dashboard · 仪表板</text>
    <text x="105" y="335" font-family="'Noto Sans SC', 'PingFang SC', 'Microsoft YaHei', sans-serif" font-size="13" fill="#2D2A26" fill-opacity="0.28">Recharts 饼图/柱状图 + 词云 + 三层推荐</text>
  </g>
  <g id="view-timeline"><path fill="#FFFFFF" stroke="#2D2A26" stroke-opacity="0.08" stroke-width="1" d="M460,265 H790 A10,10 0 0 1 800,275 V355 A10,10 0 0 1 790,365 H460 A10,10 0 0 1 450,355 V275 A10,10 0 0 1 460,265 Z" />
    
  <g transform="translate(475.0, 290.0) scale(0.9166666666666666)" fill="none" stroke="#c9866b" stroke-width="2">
    <path d="M4 16l6 -7l5 5l5 -6" />
    <path d="M14 14a1 1 0 1 0 2 0a1 1 0 1 0 -2 0" />
    <path d="M9 9a1 1 0 1 0 2 0a1 1 0 1 0 -2 0" />
    <path d="M3 16a1 1 0 1 0 2 0a1 1 0 1 0 -2 0" />
    <path d="M19 8a1 1 0 1 0 2 0a1 1 0 1 0 -2 0" />
  </g>
    <text x="510" y="305" font-family="'Noto Sans SC', 'PingFang SC', 'Microsoft YaHei', sans-serif" font-size="17" font-weight="600" fill="#2D2A26">Timeline · 时间线</text>
    <text x="475" y="335" font-family="'Noto Sans SC', 'PingFang SC', 'Microsoft YaHei', sans-serif" font-size="13" fill="#2D2A26" fill-opacity="0.28">按月分组垂直时间线，motion 交错入场</text>
  </g>
  <g id="view-compare"><path fill="#FFFFFF" stroke="#2D2A26" stroke-opacity="0.08" stroke-width="1" d="M830,265 H1190 A10,10 0 0 1 1200,275 V355 A10,10 0 0 1 1190,365 H830 A10,10 0 0 1 820,355 V275 A10,10 0 0 1 830,265 Z" />
    
  <g transform="translate(845.0, 290.0) scale(0.9166666666666666)" fill="none" stroke="#c9866b" stroke-width="2">
    <path d="M4 6a2 2 0 1 0 4 0a2 2 0 1 0 -4 0" />
    <path d="M16 18a2 2 0 1 0 4 0a2 2 0 1 0 -4 0" />
    <path d="M11 6h5a2 2 0 0 1 2 2v8" />
    <path d="M14 9l-3 -3l3 -3" />
    <path d="M13 18h-5a2 2 0 0 1 -2 -2v-8" />
    <path d="M10 15l3 3l-3 3" />
  </g>
    <text x="880" y="305" font-family="'Noto Sans SC', 'PingFang SC', 'Microsoft YaHei', sans-serif" font-size="17" font-weight="600" fill="#2D2A26">Compare · 横向对比</text>
    <text x="845" y="335" font-family="'Noto Sans SC', 'PingFang SC', 'Microsoft YaHei', sans-serif" font-size="13" fill="#2D2A26" fill-opacity="0.28">2-5 篇书签 AI 五维对比，雷达图+矩阵表</text>
  </g>
  <g id="view-path"><path fill="#FFFFFF" stroke="#2D2A26" stroke-opacity="0.08" stroke-width="1" d="M90,385 H420 A10,10 0 0 1 430,395 V475 A10,10 0 0 1 420,485 H90 A10,10 0 0 1 80,475 V395 A10,10 0 0 1 90,385 Z" />
    
  <g transform="translate(105.0, 410.0) scale(0.9166666666666666)" fill="none" stroke="#c9866b" stroke-width="2">
    <path d="M4 7h3a1 1 0 0 0 1 -1v-1a2 2 0 0 1 4 0v1a1 1 0 0 0 1 1h3a1 1 0 0 1 1 1v3a1 1 0 0 0 1 1h1a2 2 0 0 1 0 4h-1a1 1 0 0 0 -1 1v3a1 1 0 0 1 -1 1h-3a1 1 0 0 1 -1 -1v-1a2 2 0 0 0 -4 0v1a1 1 0 0 1 -1 1h-3a1 1 0 0 1 -1 -1v-3a1 1 0 0 1 1 -1h1a2 2 0 0 0 0 -4h-1a1 1 0 0 1 -1 -1v-3a1 1 0 0 1 1 -1" />
  </g>
    <text x="140" y="425" font-family="'Noto Sans SC', 'PingFang SC', 'Microsoft YaHei', sans-serif" font-size="17" font-weight="600" fill="#2D2A26">Learning Path · 学习路径</text>
    <text x="105" y="455" font-family="'Noto Sans SC', 'PingFang SC', 'Microsoft YaHei', sans-serif" font-size="13" fill="#2D2A26" fill-opacity="0.28">结构化学习计划 + 进度 + 笔记 + 导出</text>
  </g>
  <g id="view-weekly"><path fill="#FFFFFF" stroke="#2D2A26" stroke-opacity="0.08" stroke-width="1" d="M460,385 H790 A10,10 0 0 1 800,395 V475 A10,10 0 0 1 790,485 H460 A10,10 0 0 1 450,475 V395 A10,10 0 0 1 460,385 Z" />
    
  <g transform="translate(475.0, 410.0) scale(0.9166666666666666)" fill="none" stroke="#c9866b" stroke-width="2">
    <path d="M3 13a1 1 0 0 1 1 -1h4a1 1 0 0 1 1 1v6a1 1 0 0 1 -1 1h-4a1 1 0 0 1 -1 -1l0 -6" />
    <path d="M15 9a1 1 0 0 1 1 -1h4a1 1 0 0 1 1 1v10a1 1 0 0 1 -1 1h-4a1 1 0 0 1 -1 -1l0 -10" />
    <path d="M9 5a1 1 0 0 1 1 -1h4a1 1 0 0 1 1 1v14a1 1 0 0 1 -1 1h-4a1 1 0 0 1 -1 -1l0 -14" />
    <path d="M4 20h14" />
  </g>
    <text x="510" y="425" font-family="'Noto Sans SC', 'PingFang SC', 'Microsoft YaHei', sans-serif" font-size="17" font-weight="600" fill="#2D2A26">Weekly · 周报</text>
    <text x="475" y="455" font-family="'Noto Sans SC', 'PingFang SC', 'Microsoft YaHei', sans-serif" font-size="13" fill="#2D2A26" fill-opacity="0.28">本周 vs 上周对比 · Top 标签 · 增长趋势</text>
  </g>
  <g id="view-graph"><path fill="#FFFFFF" stroke="#2D2A26" stroke-opacity="0.08" stroke-width="1" d="M830,385 H1190 A10,10 0 0 1 1200,395 V475 A10,10 0 0 1 1190,485 H830 A10,10 0 0 1 820,475 V395 A10,10 0 0 1 830,385 Z" />
    
  <g transform="translate(845.0, 410.0) scale(0.9166666666666666)" fill="none" stroke="#c9866b" stroke-width="2">
    <path d="M4 18v-12a2 2 0 0 1 2 -2h12a2 2 0 0 1 2 2v12a2 2 0 0 1 -2 2h-12a2 2 0 0 1 -2 -2" />
    <path d="M7 14l3 -3l2 2l3 -3l2 2" />
  </g>
    <text x="880" y="425" font-family="'Noto Sans SC', 'PingFang SC', 'Microsoft YaHei', sans-serif" font-size="17" font-weight="600" fill="#2D2A26">Knowledge Graph · 知识图谱</text>
    <text x="845" y="455" font-family="'Noto Sans SC', 'PingFang SC', 'Microsoft YaHei', sans-serif" font-size="13" fill="#2D2A26" fill-opacity="0.28">力导向图 + 三层交互 + 时间轴播放 + 截图导出</text>
  </g>
  <g id="view-activity"><path fill="#c9866b" fill-opacity="0.04" d="M350,505 H930 A10,10 0 0 1 940,515 V595 A10,10 0 0 1 930,605 H350 A10,10 0 0 1 340,595 V515 A10,10 0 0 1 350,505 Z" />
    
  <g transform="translate(560.0, 530.0) scale(0.9166666666666666)" fill="none" stroke="#c9866b" stroke-width="2">
    <path d="M10 3.2a9 9 0 1 0 10.8 10.8a1 1 0 0 0 -1 -1h-6.8a2 2 0 0 1 -2 -2v-7a.9 .9 0 0 0 -1 -.8" />
    <path d="M15 3.5a9 9 0 0 1 5.5 5.5h-4.5a1 1 0 0 1 -1 -1v-4.5" />
  </g>
    <text x="600" y="545" font-family="'Noto Sans SC', 'PingFang SC', 'Microsoft YaHei', sans-serif" font-size="17" font-weight="600" fill="#2D2A26">Activity · 活动日志</text>
    <text x="560" y="575" font-family="'Noto Sans SC', 'PingFang SC', 'Microsoft YaHei', sans-serif" font-size="13" fill="#2D2A26" fill-opacity="0.28">书签收藏/阅读/归档操作记录，追踪用户知识消费行为</text>
  </g>
  <g id="footer">
    <text x="1200" y="690" text-anchor="end" font-family="'Noto Sans SC', 'PingFang SC', 'Microsoft YaHei', sans-serif" font-size="13" fill="#2D2A26" fill-opacity="0.28">13 / 25</text>
    <text x="80" y="690" font-family="'Noto Sans SC', 'PingFang SC', 'Microsoft YaHei', sans-serif" font-size="13" fill="#2D2A26" fill-opacity="0.18">MarkBox · 十大视图总览</text>
  </g>
</svg>