<svg xmlns="http://www.w3.org/2000/svg" viewBox="0 0 1280 720" width="1280" height="720">
  <defs>
    <radialGradient id="bgGlow" cx="30%" cy="50%" r="40%">
      <stop offset="0%" stop-color="#c9866b" stop-opacity="0.04" />
      <stop offset="100%" stop-color="#FAFAF8" stop-opacity="0" />
    </radialGradient>
  </defs>
  <g id="bg-layer">
    <rect x="0" y="0" width="1280" height="720" fill="#FAFAF8" />
    <rect x="0" y="0" width="1280" height="720" fill="url(#bgGlow)" />
  </g>
  <g id="header">
    <text x="80" y="55" font-family="'Noto Sans SC', 'PingFang SC', 'Microsoft YaHei', sans-serif" font-size="15" fill="#2D2A26" fill-opacity="0.28">视图</text>
    <line x1="80" y1="68" x2="130" y2="68" stroke="#c9866b" stroke-opacity="0.35" stroke-width="1.5" />
    <text x="80" y="120" font-family="'Playfair Display', 'Noto Serif SC', Georgia, serif" font-size="36" font-weight="700" fill="#2D2A26">横向对比</text>
    <text x="80" y="153" font-family="'Noto Sans SC', 'PingFang SC', 'Microsoft YaHei', sans-serif" font-size="15" fill="#2D2A26" fill-opacity="0.40">选 2-5 篇书签 → AI 五维度深度对比 → 雷达图 + 矩阵表格分析</text>
  </g>
  <g id="col-compare">
    <text x="80" y="205" font-family="'Noto Sans SC', 'PingFang SC', 'Microsoft YaHei', sans-serif" font-size="18" font-weight="600" fill="#2D2A26">对比结果视图</text>
    <path fill="#c9866b" fill-opacity="0.03" d="M92,225 H613 A12,12 0 0 1 625,237 V553 A12,12 0 0 1 613,565 H92 A12,12 0 0 1 80,553 V237 A12,12 0 0 1 92,225 Z" />
    <path fill="none" stroke="#c9866b" stroke-opacity="0.30" stroke-width="1.5" stroke-dasharray="8,4" d="M92,225 H613 A12,12 0 0 1 625,237 V553 A12,12 0 0 1 613,565 H92 A12,12 0 0 1 80,553 V237 A12,12 0 0 1 92,225 Z" />
    
  <g transform="translate(320.0, 360.0) scale(1.6666666666666667)" fill="none" stroke="#c9866b" stroke-width="2">
    <path d="M4 6a2 2 0 1 0 4 0a2 2 0 1 0 -4 0" />
    <path d="M16 18a2 2 0 1 0 4 0a2 2 0 1 0 -4 0" />
    <path d="M11 6h5a2 2 0 0 1 2 2v8" />
    <path d="M14 9l-3 -3l3 -3" />
    <path d="M13 18h-5a2 2 0 0 1 -2 -2v-8" />
    <path d="M10 15l3 3l-3 3" />
  </g>
    <text x="352" y="390" font-family="'Noto Sans SC', 'PingFang SC', 'Microsoft YaHei', sans-serif" font-size="15" fill="#2D2A26" fill-opacity="0.33">full_compare.png</text>
    <text x="352" y="412" font-family="'Noto Sans SC', 'PingFang SC', 'Microsoft YaHei', sans-serif" font-size="13" fill="#2D2A26" fill-opacity="0.18">全页对比视图</text>
  </g>
  <g id="col-radar">
    <text x="655" y="205" font-family="'Noto Sans SC', 'PingFang SC', 'Microsoft YaHei', sans-serif" font-size="18" font-weight="600" fill="#2D2A26">雷达图特写</text>
    <path fill="#c9866b" fill-opacity="0.03" d="M667,225 H1188 A12,12 0 0 1 1200,237 V553 A12,12 0 0 1 1188,565 H667 A12,12 0 0 1 655,553 V237 A12,12 0 0 1 667,225 Z" />
    <path fill="none" stroke="#c9866b" stroke-opacity="0.30" stroke-width="1.5" stroke-dasharray="8,4" d="M667,225 H1188 A12,12 0 0 1 1200,237 V553 A12,12 0 0 1 1188,565 H667 A12,12 0 0 1 655,553 V237 A12,12 0 0 1 667,225 Z" />
    
  <g transform="translate(895.0, 360.0) scale(1.6666666666666667)" fill="none" stroke="#c9866b" stroke-width="2">
    <path d="M10 3.2a9 9 0 1 0 10.8 10.8a1 1 0 0 0 -1 -1h-6.8a2 2 0 0 1 -2 -2v-7a.9 .9 0 0 0 -1 -.8" />
    <path d="M15 3.5a9 9 0 0 1 5.5 5.5h-4.5a1 1 0 0 1 -1 -1v-4.5" />
  </g>
    <text x="927" y="390" font-family="'Noto Sans SC', 'PingFang SC', 'Microsoft YaHei', sans-serif" font-size="15" fill="#2D2A26" fill-opacity="0.33">detail_radar.png</text>
    <text x="927" y="412" font-family="'Noto Sans SC', 'PingFang SC', 'Microsoft YaHei', sans-serif" font-size="13" fill="#2D2A26" fill-opacity="0.18">五维度雷达图特写</text>
  </g>
  <g id="features">
    <g id="feat-1">
      <path fill="#c9866b" fill-opacity="0.04" d="M88,590 H342 A8,8 0 0 1 350,598 V642 A8,8 0 0 1 342,650 H88 A8,8 0 0 1 80,642 V598 A8,8 0 0 1 88,590 Z" />
      <text x="100" y="613" font-family="'Noto Sans SC', 'PingFang SC', 'Microsoft YaHei', sans-serif" font-size="13" fill="#2D2A26" fill-opacity="0.40">选择 2-5 篇书签同时对比</text>
      <text x="100" y="635" font-family="'Noto Sans SC', 'PingFang SC', 'Microsoft YaHei', sans-serif" font-size="11" fill="#2D2A26" fill-opacity="0.28">同主题/跨领域自由选择</text>
    </g>
    <g id="feat-2">
      <path fill="#c9866b" fill-opacity="0.04" d="M378,590 H632 A8,8 0 0 1 640,598 V642 A8,8 0 0 1 632,650 H378 A8,8 0 0 1 370,642 V598 A8,8 0 0 1 378,590 Z" />
      <text x="390" y="613" font-family="'Noto Sans SC', 'PingFang SC', 'Microsoft YaHei', sans-serif" font-size="13" fill="#2D2A26" fill-opacity="0.40">AI 五维度深度评分</text>
      <text x="390" y="635" font-family="'Noto Sans SC', 'PingFang SC', 'Microsoft YaHei', sans-serif" font-size="11" fill="#2D2A26" fill-opacity="0.28">DeepSeek V4 Flash 多维度分析</text>
    </g>
    <g id="feat-3">
      <path fill="#c9866b" fill-opacity="0.04" d="M668,590 H922 A8,8 0 0 1 930,598 V642 A8,8 0 0 1 922,650 H668 A8,8 0 0 1 660,642 V598 A8,8 0 0 1 668,590 Z" />
      <text x="680" y="613" font-family="'Noto Sans SC', 'PingFang SC', 'Microsoft YaHei', sans-serif" font-size="13" fill="#2D2A26" fill-opacity="0.40">矩阵表差异高亮 + Markdown 导出</text>
      <text x="680" y="635" font-family="'Noto Sans SC', 'PingFang SC', 'Microsoft YaHei', sans-serif" font-size="11" fill="#2D2A26" fill-opacity="0.28">红/黄差异标记 · 评语总结</text>
    </g>
    <g id="feat-4">
      <path fill="#c9866b" fill-opacity="0.04" d="M958,590 H1192 A8,8 0 0 1 1200,598 V642 A8,8 0 0 1 1192,650 H958 A8,8 0 0 1 950,642 V598 A8,8 0 0 1 958,590 Z" />
      <text x="970" y="615" font-family="'Noto Sans SC', 'PingFang SC', 'Microsoft YaHei', sans-serif" font-size="13" fill="#2D2A26" fill-opacity="0.28">Recharts RadarChart</text>
      <text x="970" y="638" font-family="'Noto Sans SC', 'PingFang SC', 'Microsoft YaHei', sans-serif" font-size="11" fill="#2D2A26" fill-opacity="0.28">内置依赖，无额外安装</text>
    </g>
  </g>
  <g id="footer">
    <text x="1200" y="690" text-anchor="end" font-family="'Noto Sans SC', 'PingFang SC', 'Microsoft YaHei', sans-serif" font-size="13" fill="#2D2A26" fill-opacity="0.28">17 / 25</text>
    <text x="80" y="690" font-family="'Noto Sans SC', 'PingFang SC', 'Microsoft YaHei', sans-serif" font-size="13" fill="#2D2A26" fill-opacity="0.18">MarkBox · 横向对比</text>
  </g>
</svg>