<svg xmlns="http://www.w3.org/2000/svg" viewBox="0 0 1280 720" width="1280" height="720">
  <defs>
    <radialGradient id="bgGlow" cx="30%" cy="50%" r="40%">
      <stop offset="0%" stop-color="#c9866b" stop-opacity="0.04" />
      <stop offset="100%" stop-color="#FAFAF8" stop-opacity="0" />
    </radialGradient>
  </defs>
  <g id="bg-layer">
    <rect x="0" y="0" width="1280" height="720" fill="#FAFAF8" />
    <rect x="0" y="0" width="1280" height="720" fill="url(#bgGlow)" />
  </g>
  <g id="header">
    <text x="80" y="55" font-family="'Noto Sans SC', 'PingFang SC', 'Microsoft YaHei', sans-serif" font-size="15" fill="#2D2A26" fill-opacity="0.28">生态</text>
    <line x1="80" y1="68" x2="130" y2="68" stroke="#c9866b" stroke-opacity="0.35" stroke-width="1.5" />
    <text x="80" y="120" font-family="'Playfair Display', 'Noto Serif SC', Georgia, serif" font-size="36" font-weight="700" fill="#2D2A26">语音搜索</text>
    <text x="80" y="153" font-family="'Noto Sans SC', 'PingFang SC', 'Microsoft YaHei', sans-serif" font-size="15" fill="#2D2A26" fill-opacity="0.40">Web Speech API 中文识别 — 说话就能搜到书签</text>
  </g>
  <g id="left-content">
    <g id="voice-speech">
      
  <g transform="translate(80.0, 210.0)" fill="none" stroke="#c9866b" stroke-width="2">
    <path d="M9 5a3 3 0 0 1 3 -3a3 3 0 0 1 3 3v5a3 3 0 0 1 -3 3a3 3 0 0 1 -3 -3l0 -5" />
    <path d="M5 10a7 7 0 0 0 14 0" />
    <path d="M8 21l8 0" />
    <path d="M12 17l0 4" />
  </g>
      <text x="120" y="228" font-family="'Noto Sans SC', 'PingFang SC', 'Microsoft YaHei', sans-serif" font-size="18" font-weight="600" fill="#2D2A26">浏览器原生语音识别</text>
      <text x="120" y="255" font-family="'Noto Sans SC', 'PingFang SC', 'Microsoft YaHei', sans-serif" font-size="14" fill="#2D2A26" fill-opacity="0.40">Web Speech API 无需额外权限，Chrome 原生支持中文识别</text>
    </g>
    <g id="voice-realtime">
      
  <g transform="translate(80.0, 315.0)" fill="none" stroke="#c9866b" stroke-width="2">
    <path d="M6 21l15 -15l-3 -3l-15 15l3 3" />
    <path d="M15 6l3 3" />
    <path d="M9 3a2 2 0 0 0 2 2a2 2 0 0 0 -2 2a2 2 0 0 0 -2 -2a2 2 0 0 0 2 -2" />
    <path d="M19 13a2 2 0 0 0 2 2a2 2 0 0 0 -2 2a2 2 0 0 0 -2 -2a2 2 0 0 0 2 -2" />
  </g>
      <text x="120" y="333" font-family="'Noto Sans SC', 'PingFang SC', 'Microsoft YaHei', sans-serif" font-size="18" font-weight="600" fill="#2D2A26">实时识别展示</text>
      <text x="120" y="360" font-family="'Noto Sans SC', 'PingFang SC', 'Microsoft YaHei', sans-serif" font-size="14" fill="#2D2A26" fill-opacity="0.40">边说边显示识别文字 · 语音结束后自动填入搜索框触发搜索</text>
    </g>
    <g id="voice-pulse">
      
  <g transform="translate(80.0, 420.0)" fill="none" stroke="#c9866b" stroke-width="2">
    <path d="M10 3.2a9 9 0 1 0 10.8 10.8a1 1 0 0 0 -1 -1h-6.8a2 2 0 0 1 -2 -2v-7a.9 .9 0 0 0 -1 -.8" />
    <path d="M15 3.5a9 9 0 0 1 5.5 5.5h-4.5a1 1 0 0 1 -1 -1v-4.5" />
  </g>
      <text x="120" y="438" font-family="'Noto Sans SC', 'PingFang SC', 'Microsoft YaHei', sans-serif" font-size="18" font-weight="600" fill="#2D2A26">脉冲指示器动画</text>
      <text x="120" y="465" font-family="'Noto Sans SC', 'PingFang SC', 'Microsoft YaHei', sans-serif" font-size="14" fill="#2D2A26" fill-opacity="0.40">CSS 动画驱动的脉冲波纹，语音识别进行中时可见麦克风状态</text>
    </g>
    <g id="voice-ux">
      
  <g transform="translate(80.0, 525.0)" fill="none" stroke="#c9866b" stroke-width="2">
    <path d="M3 10a7 7 0 1 0 14 0a7 7 0 1 0 -14 0" />
    <path d="M21 21l-6 -6" />
  </g>
      <text x="120" y="543" font-family="'Noto Sans SC', 'PingFang SC', 'Microsoft YaHei', sans-serif" font-size="18" font-weight="600" fill="#2D2A26">自然语言搜索结合</text>
      <text x="120" y="570" font-family="'Noto Sans SC', 'PingFang SC', 'Microsoft YaHei', sans-serif" font-size="14" fill="#2D2A26" fill-opacity="0.40">"上次那个讲 React hooks 的视频" → 语义搜索召回相关书签</text>
    </g>
  </g>
  <g id="placeholder-voice">
    <path fill="#c9866b" fill-opacity="0.03" d="M652,190 H1188 A12,12 0 0 1 1200,202 V628 A12,12 0 0 1 1188,640 H652 A12,12 0 0 1 640,628 V202 A12,12 0 0 1 652,190 Z" />
    <path fill="none" stroke="#c9866b" stroke-opacity="0.30" stroke-width="1.5" stroke-dasharray="8,4" d="M652,190 H1188 A12,12 0 0 1 1200,202 V628 A12,12 0 0 1 1188,640 H652 A12,12 0 0 1 640,628 V202 A12,12 0 0 1 652,190 Z" />
    
  <g transform="translate(880.0, 380.0) scale(1.6666666666666667)" fill="none" stroke="#c9866b" stroke-width="2">
    <path d="M9 5a3 3 0 0 1 3 -3a3 3 0 0 1 3 3v5a3 3 0 0 1 -3 3a3 3 0 0 1 -3 -3l0 -5" />
    <path d="M5 10a7 7 0 0 0 14 0" />
    <path d="M8 21l8 0" />
    <path d="M12 17l0 4" />
  </g>
    <text x="920" y="405" font-family="'Noto Sans SC', 'PingFang SC', 'Microsoft YaHei', sans-serif" font-size="16" fill="#2D2A26" fill-opacity="0.33">detail_voice.png</text>
    <text x="920" y="428" font-family="'Noto Sans SC', 'PingFang SC', 'Microsoft YaHei', sans-serif" font-size="13" fill="#2D2A26" fill-opacity="0.18">语音搜索脉冲动画 + 识别文字</text>
  </g>
  <g id="footer">
    <text x="1200" y="690" text-anchor="end" font-family="'Noto Sans SC', 'PingFang SC', 'Microsoft YaHei', sans-serif" font-size="13" fill="#2D2A26" fill-opacity="0.28">21 / 25</text>
    <text x="80" y="690" font-family="'Noto Sans SC', 'PingFang SC', 'Microsoft YaHei', sans-serif" font-size="13" fill="#2D2A26" fill-opacity="0.18">MarkBox · 语音搜索</text>
  </g>
</svg>